<svg xmlns="http://www.w3.org/2000/svg" class="css-1j8o68f" viewBox="0 0 240 240" width="240" height="240"><defs id="SvgjsDefs1374"/><g id="SvgjsG1375" fill="#235784" transform="matrix(1 0 0 1 0 0)" featurekey="rootContainer"><rect width="240" height="240" rx="10" ry="10"/></g><g id="SvgjsG1376" fill="#ffffff" transform="matrix(5.81395 0 0 5.81395 19.0698 40)" featurekey="q4o0QG-0"><path d="M 7 8.06 l -3.02 -0.02 l -0.18 -0.74 l 0 -1.26 l 0.04 -0.68 l 3.18 -0.04 l 0.22 1.24 l -0.06 1.32 Z M 4.14 8.96 l 3.04 0.12 l 0.18 8.66 l -0.18 1.52 l -0.46 0.74 l -5.44 0 l -0.58 -0.3 l -0.42 -0.92 l -0.12 -5 l 3.4 -0.12 l 0 5.14 l 0.42 0.22 l 0.7 -0.04 l -0.42 -6.86 l -0.18 -0.74 Z M 14.14 12.6 l 0 -4.04 l -2.42 0.04 c 0 0.5 -0.16 1.4 -0.18 2.2 c 0 0.46 -0.02 0.96 -0.06 1.48 l -0.12 1.74 l 0 2.04 l 0.2 1.16 l 1.96 0.12 l 0.42 -0.3 l 0.12 -2.32 l 0.36 0.04 l 1.26 -0.04 l 0.14 0.72 l -0.06 3 l 0 1 l -1.24 0.52 l -0.38 0.06 l -0.34 0.04 l -3.02 -0.12 l -1.72 -0.64 l -0.64 -3.18 l 0.24 -3 l 0.18 -3.28 l 0 -2.6 l 0.74 -1.4 l 0.68 -0.58 l 2.32 0.06 l 2.02 0 l 1.22 0.54 l 0.08 6.64 c -0.32 0.04 -1.44 0.1 -1.76 0.1 Z M 23.1 12.64 l 2.42 7.52 l -1.08 0 l -2.14 -0.1 l -1.46 -5.36 l -1.06 5.34 l -1.28 0.22 l -2.32 -0.22 l 2.42 -7.38 l -2.42 -7.48 l 1.9 0 l 1.28 0.1 l 1.06 4.96 l 0.48 0.32 l 0.38 -5.38 l 1.54 -0.1 l 2.7 0.14 l -2.42 7.1 l 0 0.32 Z M 31.2 5.12 l 3.36 0 l -2.52 8.38 l 0 1.02 l -0.16 5.52 l -3.88 0.1 l 0.72 -6.08 l -0.64 -0.98 l -2.44 -7.74 l 3.08 -0.22 l 1.36 7.52 l 0.56 -1.54 Z"/></g></svg>